<svg t="1639797049322" {{with .class}} class="{{ . }}" {{ end }} viewBox="0 0 1024 1024" version="1.1" xmlns="http://www.w3.org/2000/svg" p-id="2028" width="200" height="200"><path d="M233.944615 83.180308V47.104c0-25.993846 21.346462-47.104 47.812923-47.104 26.387692 0 47.812923 21.110154 47.812924 47.104v36.076308h299.559384V47.104c0-25.993846 21.425231-47.104 47.812923-47.104 26.466462 0 47.812923 21.110154 47.812923 47.104v36.076308h62.227693c97.122462 0 176.128 77.902769 176.128 173.607384V363.913846a46.710154 46.710154 0 0 1 0 18.589539v401.723077c0 95.940923-79.163077 173.843692-176.20677 173.843692l-621.252923-0.787692C76.327385 949.011692 6.144 874.653538 6.144 784.462769v-527.753846c0-95.625846 79.005538-173.528615 176.285538-173.528615h51.515077z m0 70.892307h-51.515077C124.770462 153.993846 77.981538 200.073846 77.981538 256.787692v69.316923a49.309538 49.309538 0 0 1 2.993231 0h810.299077v-69.316923c0-56.713846-46.788923-102.872615-104.369231-102.872615h-62.227692v54.429538c0 25.993846-21.346462 47.261538-47.812923 47.261539a47.497846 47.497846 0 0 1-47.812923-47.104v-54.587077H329.570462v54.429538c0 25.993846-21.425231 47.261538-47.812924 47.261539a47.497846 47.497846 0 0 1-47.812923-47.104v-54.587077z m657.408 266.31877H81.132308l-2.993231-0.07877v364.150154c0 56.713846 46.867692 102.793846 104.369231 102.793846H786.904615c57.580308 0 104.369231-46.158769 104.369231-102.793846V420.391385z m-383.606153 347.923692h-45.686154a47.497846 47.497846 0 0 1-47.812923-47.182769c0-25.993846 21.346462-47.104 47.812923-47.104h45.686154c26.387692 0 47.812923 21.110154 47.812923 47.104a47.419077 47.419077 0 0 1-47.812923 47.182769z m-213.464616-148.164923h-45.686154a47.497846 47.497846 0 0 1-47.812923-47.182769c0-25.993846 21.346462-47.104 47.812923-47.104h45.686154c26.387692 0 47.812923 21.110154 47.812923 47.104 0 26.072615-21.425231 47.182769-47.812923 47.182769z m213.464616 0h-45.686154a47.497846 47.497846 0 0 1-47.812923-47.182769c0-25.993846 21.346462-47.104 47.812923-47.104h45.686154c26.387692 0 47.812923 21.110154 47.812923 47.104 0 26.072615-21.425231 47.182769-47.812923 47.182769z m212.91323 0h-45.686154a47.497846 47.497846 0 0 1-47.812923-47.182769c0-25.993846 21.425231-47.104 47.812923-47.104h45.686154c26.466462 0 47.891692 21.110154 47.891693 47.104 0 26.072615-21.425231 47.182769-47.891693 47.182769z m-426.377846 148.086154h-45.686154a47.497846 47.497846 0 0 1-47.812923-47.104c0-25.993846 21.346462-47.104 47.812923-47.104h45.686154c26.387692 0 47.812923 21.110154 47.812923 47.104a47.419077 47.419077 0 0 1-47.812923 47.182769z m426.377846 0h-45.686154a47.497846 47.497846 0 0 1-47.812923-47.104c0-25.993846 21.425231-47.104 47.812923-47.104h45.686154c26.466462 0 47.891692 21.110154 47.891693 47.104 0 26.072615-21.425231 47.182769-47.891693 47.182769z" p-id="2029"></path></svg>